<?xml version="1.0" standalone="no"?>
<!DOCTYPE svg PUBLIC "-//W3C//DTD SVG 20010904//EN"
 "http://www.w3.org/TR/2001/REC-SVG-20010904/DTD/svg10.dtd">
<svg version="1.0" xmlns="http://www.w3.org/2000/svg"
 width="160.000000pt" height="160.000000pt" viewBox="0 0 200.000000 200.000000"
 preserveAspectRatio="xMidYMid meet">

<g transform="translate(0.000000,200.000000) scale(0.100000,-0.100000)"
fill="#000000" stroke="none">
<path d="M685 1727 c-3 -7 -4 -96 -3 -197 l3 -185 125 -5 125 -5 3 -42 c3 -37
0 -42 -20 -46 -13 -2 24 -4 82 -4 58 0 95 2 82 4 -20 4 -23 9 -20 46 l3 42
125 5 125 5 0 195 0 195 -313 3 c-249 2 -314 0 -317 -11z m623 -189 l2 -188
-310 0 -310 0 0 183 c0 101 3 187 7 190 4 4 142 6 307 5 l301 -3 3 -187z
m-260 -245 l3 -43 -50 0 -51 0 0 38 c0 49 5 54 55 50 39 -3 40 -4 43 -45z"/>
<path d="M1001 1556 c-42 -90 -59 -136 -46 -124 12 12 95 201 90 206 -2 2 -22
-34 -44 -82z"/>
<path d="M816 1574 c-37 -19 -66 -37 -65 -38 15 -13 149 -75 149 -68 0 4 -28
22 -62 38 l-63 31 63 32 c56 28 74 42 55 41 -5 -1 -39 -17 -77 -36z"/>
<path d="M1100 1605 c0 -3 28 -19 62 -36 l63 -32 -63 -31 c-34 -16 -62 -34
-62 -38 0 -7 134 55 149 68 3 3 -134 74 -144 74 -3 0 -5 -2 -5 -5z"/>
<path d="M637 1034 c-14 -15 -6 -34 14 -34 14 0 19 5 17 17 -3 18 -20 27 -31
17z"/>
<path d="M1013 1025 c-62 -27 -90 -112 -58 -179 22 -45 59 -66 120 -66 71 0
85 12 85 70 l0 50 -35 0 c-19 0 -35 -4 -35 -10 0 -5 9 -10 20 -10 16 0 20 -7
20 -34 0 -26 -5 -35 -22 -40 -43 -11 -68 -6 -99 22 -75 67 -17 199 79 178 15
-3 37 -8 50 -12 36 -10 26 15 -13 32 -42 17 -71 17 -112 -1z"/>
<path d="M110 905 c0 -118 1 -125 20 -125 18 0 20 7 20 55 l0 55 50 0 c38 0
50 4 50 15 0 11 -12 15 -50 15 l-50 0 0 45 0 45 60 0 c33 0 60 4 60 10 0 6
-33 10 -80 10 l-80 0 0 -125z"/>
<path d="M514 985 c-4 -23 -12 -35 -23 -35 -14 -1 -14 -2 2 -14 12 -10 17 -28
17 -69 0 -30 3 -62 6 -71 8 -20 74 -22 74 -3 0 8 -10 13 -22 13 -21 -1 -23 4
-26 62 -3 61 -2 62 23 62 16 0 25 6 25 15 0 9 -9 15 -25 15 -21 0 -25 5 -25
30 0 41 -18 38 -26 -5z"/>
<path d="M315 935 c-34 -33 -35 -102 -2 -133 47 -45 127 -21 143 43 22 90 -78
154 -141 90z m90 -9 c23 -17 27 -85 6 -110 -17 -20 -55 -21 -75 0 -21 20 -20
83 1 106 19 22 42 23 68 4z"/>
<path d="M640 870 c0 -73 3 -90 15 -90 12 0 15 17 15 90 0 73 -3 90 -15 90
-12 0 -15 -17 -15 -90z"/>
<path d="M738 949 c-11 -6 -18 -22 -18 -40 0 -26 6 -32 46 -49 59 -26 59 -54
-1 -56 -58 -2 -62 -3 -45 -14 25 -16 85 -12 103 8 32 35 12 73 -45 87 -56 14
-35 63 22 50 17 -4 30 -2 30 3 0 22 -62 29 -92 11z"/>
<path d="M1239 950 c-44 -26 -48 -125 -6 -155 33 -23 90 -19 115 8 32 34 30
100 -3 132 -25 26 -75 33 -106 15z m83 -27 c23 -20 24 -85 2 -107 -42 -43
-102 3 -90 69 10 52 52 70 88 38z"/>
<path d="M1426 945 c-13 -13 -16 -27 -12 -49 4 -17 6 -35 6 -41 -1 -27 -7 -62
-15 -79 -19 -44 56 -81 110 -55 69 34 57 79 -24 92 -60 10 -64 29 -7 38 41 7
56 21 56 56 0 12 6 23 13 26 22 8 2 16 -54 23 -45 5 -58 3 -73 -11z m84 -26
c14 -26 -3 -49 -36 -49 -29 0 -46 28 -33 52 13 25 56 23 69 -3z m17 -145 c9
-23 -12 -38 -53 -38 -36 0 -56 17 -47 41 8 19 92 18 100 -3z"/>
<path d="M1616 939 c-36 -28 -38 -105 -3 -137 23 -22 68 -29 102 -16 26 10 48
62 40 100 -12 69 -84 96 -139 53z m89 -13 c23 -17 27 -85 6 -110 -17 -20 -55
-21 -75 0 -21 20 -20 83 1 106 19 22 42 23 68 4z"/>
<path d="M1806 944 c-27 -26 -16 -56 29 -80 26 -13 40 -27 40 -40 0 -16 -7
-19 -43 -18 -55 1 -51 -20 5 -24 47 -3 73 16 73 54 0 20 -9 29 -46 44 -33 15
-45 25 -42 37 3 14 13 18 41 17 49 -2 44 20 -5 24 -23 2 -41 -3 -52 -14z"/>
</g>
</svg>
